<svg version="1" xmlns="http://www.w3.org/2000/svg" width="682.667" height="682.667" viewBox="0 0 512.000000 512.000000"><path d="M21.9 5c-5.8 1-8.1 2.2-13.5 7.2C3.6 16.7 0 24.6 0 31c0 5.9 3.5 14.1 7.7 18.2 4.3 4.2 11.5 7.7 15.6 7.8H26V31h460v26h2.8c4-.1 11.2-3.6 15.5-7.8 4.2-4.1 7.7-12.3 7.7-18.2 0-6.5-3.5-14.3-8.6-19-9-8.3 16.3-7.5-244.4-7.6-127.9-.1-234.6.2-237.1.6zM126.5 166.5c-2.1 2.1-2.5 3.3-2.5 8.9v6.4l-3.7 1.3c-11 3.5-20.1 10.5-24.8 19-2.7 4.8-3 6.3-3 13.9 0 14.2 3.3 19.1 22.8 34.3l8.7 6.7v24c0 13.2-.4 24-.8 24-.5 0-2.9-1.4-5.4-3-7.2-4.8-10.5-10.7-12.3-22.3-.8-5.2-3.6-7.7-8.3-7.7-5.7 0-8.2 3.1-8.2 10.1 0 14.6 9.1 29.1 22.7 36.1 3.7 2 8 3.8 9.6 4.2 2.5.6 2.7 1 2.7 6 0 8.7 5 12.9 11.9 10 3.6-1.5 5.1-4.7 5.1-10.9 0-4.1.2-4.4 3.8-5.6 11.3-3.6 20.6-11 24.9-19.7 2.4-4.8 2.8-6.9 2.8-13.7 0-7.3-.4-8.6-3.6-14.5-3.1-5.6-5.2-7.8-15.7-16l-12.2-9.5v-24.2c0-23.6 0-24.1 2-23.6 3.1.8 10.9 8.2 13 12.3 1.1 2.1 2.2 5.8 2.6 8.2.9 7.1 2.5 9.9 6 11.4 3.7 1.5 5.8 1.1 9.2-1.9 4.9-4.5 1.3-21.6-6.8-32.3-4.6-6.2-13.4-12.4-21.1-14.9l-4.9-1.7v-5.4c0-5.9-1.9-10.8-4.5-11.8-3.5-1.3-7.6-.6-10 1.9zm-2.9 67.3c-.3.3-3-1.3-5.9-3.6-11.8-8.9-11.5-20.3.7-27.2l5.1-3 .3 16.7c.1 9.1 0 16.8-.2 17.1zm24.6 42.2c10.9 9.7 10.1 19.7-2.1 26.4l-5.1 2.7v-17c0-9.4.4-17.1.8-17.1s3.3 2.3 6.4 5z"/></svg>